# xmcd
#
# Track frame offsets: 
#        150
#        29405
#        51520
#        72602
#        100045
#        136352
#        162617
#        191195
#        227025
#
# Disc length: 3550 seconds
#
# Revision: 7
# Processed by: cddbd v1.5.2PL0 Copyright (c) Steve Scherf et al.
# Submitted via: ExactAudioCopy v1.3
#
DISCID=880ddc09
DTITLE=Grant Green - Born To Be Blue
DYEAR=1962
DGENRE=Jazz
TTITLE0=Someday My Prince Will Come
TTITLE1=Born To Be Blue
TTITLE2=Born To Be Blue (alternate take - bonus track)
TTITLE3=If I Should Lose You
TTITLE4=Back In Your Own Back Yard
TTITLE5=My One and Only Love
TTITLE6=Count Every Star
TTITLE7=Cool Blues (bonus track)
TTITLE8=Outer Space
EXTD=Grant Green\nIke Quebec\nSonny Clark\nSam Jones\nLouis Hayes YEAR
EXTD=: 1961
EXTT0=
EXTT1=
EXTT2=
EXTT3=
EXTT4=
EXTT5=
EXTT6=
EXTT7=
EXTT8=
PLAYORDER=
